<svg width="27" height="26" viewBox="0 0 27 26" fill="none" xmlns="http://www.w3.org/2000/svg">
<path fill-rule="evenodd" clip-rule="evenodd" d="M23.625 11.9661L13.5 24.0469L3.375 11.9163C2.16422 10.2338 1.6875 9.0973 1.6875 7.54143C1.6875 4.63977 3.75891 2.02837 6.75 2.00391C9.21037 1.98366 11.9998 4.49632 13.5 6.39054C14.9605 4.56298 17.7896 2.00391 20.25 2.00391C23.1618 2.00391 25.3125 4.63977 25.3125 7.54143C25.3125 9.0973 24.9353 10.3182 23.625 11.9661ZM20.25 0.421875C17.4378 0.421875 15.3098 2.07225 13.5 3.79687C11.7762 1.96678 9.56222 0.421875 6.75 0.421875C2.78944 0.421875 0 3.82724 0 7.54143C0 9.53352 0.815907 10.9679 1.70944 12.3162L12.1998 24.8931C13.3768 26.1394 13.5996 26.1394 14.7766 24.8931L25.2906 12.3162C26.3419 10.9679 27 9.53352 27 7.54143C27 3.82724 24.2106 0.421875 20.25 0.421875Z" fill="black"/>
</svg>
